<svg width="545" height="300" viewBox="0 0 545 300" fill="none" xmlns="http://www.w3.org/2000/svg">
<g filter="url(#filter0_d_255_726)">
<g clip-path="url(#clip0_255_726)">
<rect x="19.5234" y="19.5237" width="505.402" height="260.274" rx="15.3127" fill="white"/>
<g filter="url(#filter1_d_255_726)">
<path d="M473.449 74.8647C476.938 75.2005 479.602 75.4564 481.71 75.8345C483.828 76.2142 485.452 76.7278 486.847 77.616C489.224 79.1307 491.061 81.3592 492.095 83.9822C492.701 85.5203 492.895 87.2132 492.864 89.3638C492.833 91.5052 492.576 94.1694 492.24 97.6586L471.445 313.697C471.109 317.187 470.854 319.851 470.475 321.959C470.096 324.076 469.582 325.701 468.694 327.095C467.179 329.473 464.951 331.31 462.328 332.343C460.79 332.949 459.097 333.143 456.946 333.112C454.805 333.081 452.141 332.824 448.651 332.488L271.883 315.474C268.394 315.138 265.729 314.882 263.621 314.504C261.504 314.124 259.879 313.61 258.485 312.722C256.107 311.207 254.27 308.979 253.237 306.356C252.631 304.818 252.436 303.125 252.467 300.974C252.498 298.833 252.755 296.169 253.091 292.68L273.886 76.6409C274.222 73.1517 274.478 70.4875 274.856 68.3794C275.236 66.2624 275.749 64.6376 276.637 63.2433C278.152 60.8656 280.381 59.0285 283.004 57.9951C284.542 57.3892 286.235 57.1949 288.385 57.226C290.527 57.2569 293.191 57.5139 296.68 57.8498L473.449 74.8647Z" fill="white" stroke="url(#paint0_linear_255_726)" stroke-width="1.57062"/>
<path d="M275.618 69.2346C276.283 62.3271 282.422 57.2664 289.329 57.9313L481.106 76.3908C488.014 77.0557 493.074 83.1943 492.41 90.1018L470.279 320.02C469.614 326.928 463.475 331.989 456.568 331.324L264.791 312.864C257.883 312.199 252.823 306.061 253.488 299.153L275.618 69.2346Z" fill="url(#paint1_linear_255_726)" fill-opacity="0.15"/>
<path d="M266.399 173.54L275.769 76.192C276.388 69.7711 276.697 66.5606 278.182 64.2284C279.489 62.1769 281.412 60.5918 283.675 59.7003C286.248 58.6868 289.458 58.9958 295.879 59.6138L473.898 76.7491C480.319 77.3671 483.529 77.6761 485.862 79.1618C487.913 80.4686 489.498 82.3914 490.39 84.6544C491.403 87.2272 491.094 90.4377 490.476 96.8586L480.103 204.629" stroke="white" stroke-width="1.57062"/>
<rect width="112.874" height="7.96759" rx="3.98379" transform="matrix(-0.995399 -0.0958122 -0.0958122 0.995399 394.912 188.124)" fill="#E8E8E8"/>
<rect width="182.192" height="7.96759" rx="3.98379" transform="matrix(-0.995399 -0.0958122 -0.0958122 0.995399 461.947 215.204)" fill="#E8E8E8"/>
<rect width="169.975" height="7.96759" rx="3.98379" transform="matrix(-0.995399 -0.0958122 -0.0958122 0.995399 459.705 235.717)" fill="#E8E8E8"/>
<rect width="150.056" height="7.96759" rx="3.98379" transform="matrix(-0.995399 -0.0958122 -0.0958122 0.995399 457.795 255.544)" fill="#E8E8E8"/>
<rect width="112.874" height="7.96759" rx="3.98379" transform="matrix(-0.995399 -0.0958122 -0.0958122 0.995399 455.758 276.693)" fill="#E8E8E8"/>
</g>
<path d="M117.746 130.844C117.746 131.375 117.711 131.853 117.64 132.278H106.884C106.972 133.34 107.344 134.172 107.999 134.774C108.655 135.376 109.46 135.677 110.416 135.677C111.797 135.677 112.78 135.084 113.364 133.898H117.375C116.95 135.314 116.135 136.483 114.931 137.404C113.727 138.307 112.249 138.758 110.496 138.758C109.079 138.758 107.805 138.448 106.671 137.829C105.556 137.191 104.68 136.297 104.042 135.146C103.422 133.995 103.113 132.667 103.113 131.162C103.113 129.64 103.422 128.303 104.042 127.152C104.662 126.001 105.529 125.116 106.645 124.496C107.76 123.877 109.044 123.567 110.496 123.567C111.895 123.567 113.143 123.868 114.241 124.47C115.356 125.072 116.215 125.93 116.817 127.046C117.437 128.144 117.746 129.41 117.746 130.844ZM113.895 129.781C113.878 128.825 113.532 128.064 112.86 127.497C112.187 126.913 111.364 126.621 110.39 126.621C109.469 126.621 108.69 126.904 108.053 127.471C107.433 128.02 107.052 128.79 106.911 129.781H113.895ZM126.595 135.093L130.314 123.806H134.271L128.826 138.519H124.311L118.893 123.806H122.877L126.595 135.093ZM150.037 130.844C150.037 131.375 150.002 131.853 149.931 132.278H139.174C139.263 133.34 139.635 134.172 140.29 134.774C140.945 135.376 141.751 135.677 142.707 135.677C144.088 135.677 145.07 135.084 145.655 133.898H149.665C149.24 135.314 148.426 136.483 147.222 137.404C146.018 138.307 144.539 138.758 142.786 138.758C141.37 138.758 140.095 138.448 138.962 137.829C137.847 137.191 136.97 136.297 136.333 135.146C135.713 133.995 135.403 132.667 135.403 131.162C135.403 129.64 135.713 128.303 136.333 127.152C136.952 126.001 137.82 125.116 138.935 124.496C140.051 123.877 141.335 123.567 142.786 123.567C144.185 123.567 145.433 123.868 146.531 124.47C147.647 125.072 148.505 125.93 149.107 127.046C149.727 128.144 150.037 129.41 150.037 130.844ZM146.186 129.781C146.168 128.825 145.823 128.064 145.15 127.497C144.477 126.913 143.654 126.621 142.68 126.621C141.76 126.621 140.98 126.904 140.343 127.471C139.723 128.02 139.343 128.79 139.201 129.781H146.186ZM160.904 123.593C162.657 123.593 164.074 124.151 165.154 125.266C166.234 126.364 166.774 127.905 166.774 129.888V138.519H163.056V130.392C163.056 129.224 162.764 128.33 162.179 127.71C161.595 127.072 160.798 126.754 159.789 126.754C158.762 126.754 157.948 127.072 157.346 127.71C156.761 128.33 156.469 129.224 156.469 130.392V138.519H152.751V123.806H156.469V125.638C156.965 125.001 157.593 124.505 158.355 124.151C159.134 123.779 159.984 123.593 160.904 123.593ZM174.639 126.86V133.978C174.639 134.473 174.754 134.836 174.984 135.067C175.232 135.279 175.639 135.385 176.206 135.385H177.932V138.519H175.595C172.461 138.519 170.894 136.996 170.894 133.951V126.86H169.141V123.806H170.894V120.167H174.639V123.806H177.932V126.86H174.639ZM78.1351 166.86H75.5589V178.519H71.7876V166.86H70.1144V163.806H71.7876V163.062C71.7876 161.256 72.301 159.928 73.328 159.078C74.3549 158.228 75.9042 157.83 77.9757 157.883V161.017C77.0727 160.999 76.4442 161.15 76.0901 161.469C75.736 161.787 75.5589 162.363 75.5589 163.195V163.806H78.1351V166.86ZM94.2223 170.844C94.2223 171.375 94.1869 171.853 94.1161 172.278H83.3599C83.4484 173.34 83.8202 174.172 84.4753 174.774C85.1304 175.376 85.9361 175.677 86.8922 175.677C88.2732 175.677 89.2559 175.084 89.8402 173.898H93.8505C93.4256 175.314 92.6111 176.483 91.4071 177.404C90.2031 178.307 88.7247 178.758 86.9718 178.758C85.5554 178.758 84.2806 178.448 83.1474 177.829C82.0319 177.191 81.1555 176.297 80.5181 175.146C79.8984 173.995 79.5885 172.667 79.5885 171.162C79.5885 169.64 79.8984 168.303 80.5181 167.152C81.1378 166.001 82.0054 165.116 83.1208 164.496C84.2363 163.877 85.52 163.567 86.9718 163.567C88.3706 163.567 89.6189 163.868 90.7166 164.47C91.8321 165.072 92.6908 165.93 93.2928 167.046C93.9125 168.144 94.2223 169.41 94.2223 170.844ZM90.3713 169.781C90.3536 168.825 90.0084 168.064 89.3356 167.497C88.6627 166.913 87.8394 166.621 86.8656 166.621C85.9449 166.621 85.1659 166.904 84.5284 167.471C83.9087 168.02 83.5281 168.79 83.3864 169.781H90.3713ZM110.614 170.844C110.614 171.375 110.579 171.853 110.508 172.278H99.7515C99.84 173.34 100.212 174.172 100.867 174.774C101.522 175.376 102.328 175.677 103.284 175.677C104.665 175.677 105.648 175.084 106.232 173.898H110.242C109.817 175.314 109.003 176.483 107.799 177.404C106.595 178.307 105.116 178.758 103.363 178.758C101.947 178.758 100.672 178.448 99.539 177.829C98.4236 177.191 97.5472 176.297 96.9097 175.146C96.29 173.995 95.9802 172.667 95.9802 171.162C95.9802 169.64 96.29 168.303 96.9097 167.152C97.5294 166.001 98.397 165.116 99.5125 164.496C100.628 163.877 101.912 163.567 103.363 163.567C104.762 163.567 106.011 163.868 107.108 164.47C108.224 165.072 109.082 165.93 109.684 167.046C110.304 168.144 110.614 169.41 110.614 170.844ZM106.763 169.781C106.745 168.825 106.4 168.064 105.727 167.497C105.054 166.913 104.231 166.621 103.257 166.621C102.337 166.621 101.558 166.904 100.92 167.471C100.3 168.02 99.9197 168.79 99.7781 169.781H106.763ZM112.372 171.109C112.372 169.622 112.664 168.303 113.248 167.152C113.85 166.001 114.665 165.116 115.692 164.496C116.719 163.877 117.861 163.567 119.118 163.567C120.074 163.567 120.986 163.779 121.853 164.204C122.721 164.611 123.411 165.16 123.925 165.851V158.866H127.696V178.519H123.925V176.341C123.464 177.067 122.818 177.652 121.986 178.094C121.154 178.537 120.189 178.758 119.091 178.758C117.852 178.758 116.719 178.439 115.692 177.802C114.665 177.165 113.85 176.271 113.248 175.12C112.664 173.951 112.372 172.614 112.372 171.109ZM123.951 171.162C123.951 170.259 123.774 169.489 123.42 168.852C123.066 168.197 122.588 167.701 121.986 167.365C121.384 167.01 120.738 166.833 120.047 166.833C119.357 166.833 118.719 167.002 118.135 167.338C117.551 167.674 117.073 168.17 116.701 168.825C116.347 169.463 116.17 170.224 116.17 171.109C116.17 171.995 116.347 172.774 116.701 173.446C117.073 174.102 117.551 174.606 118.135 174.96C118.737 175.314 119.374 175.491 120.047 175.491C120.738 175.491 121.384 175.323 121.986 174.987C122.588 174.633 123.066 174.137 123.42 173.5C123.774 172.844 123.951 172.065 123.951 171.162ZM135.046 165.957C135.524 165.249 136.179 164.673 137.011 164.231C137.861 163.788 138.826 163.567 139.906 163.567C141.163 163.567 142.296 163.877 143.306 164.496C144.333 165.116 145.138 166.001 145.722 167.152C146.324 168.285 146.625 169.604 146.625 171.109C146.625 172.614 146.324 173.951 145.722 175.12C145.138 176.271 144.333 177.165 143.306 177.802C142.296 178.439 141.163 178.758 139.906 178.758C138.808 178.758 137.843 178.546 137.011 178.121C136.197 177.678 135.542 177.112 135.046 176.421V178.519H131.328V158.866H135.046V165.957ZM142.828 171.109C142.828 170.224 142.642 169.463 142.27 168.825C141.916 168.17 141.438 167.674 140.836 167.338C140.251 167.002 139.614 166.833 138.923 166.833C138.251 166.833 137.613 167.01 137.011 167.365C136.427 167.701 135.949 168.197 135.577 168.852C135.223 169.507 135.046 170.277 135.046 171.162C135.046 172.048 135.223 172.818 135.577 173.473C135.949 174.128 136.427 174.633 137.011 174.987C137.613 175.323 138.251 175.491 138.923 175.491C139.614 175.491 140.251 175.314 140.836 174.96C141.438 174.606 141.916 174.102 142.27 173.446C142.642 172.791 142.828 172.012 142.828 171.109ZM148.371 171.109C148.371 169.622 148.663 168.303 149.248 167.152C149.85 166.001 150.655 165.116 151.664 164.496C152.691 163.877 153.833 163.567 155.091 163.567C156.188 163.567 157.144 163.788 157.959 164.231C158.791 164.673 159.455 165.231 159.951 165.904V163.806H163.696V178.519H159.951V176.368C159.473 177.058 158.809 177.634 157.959 178.094C157.127 178.537 156.162 178.758 155.064 178.758C153.825 178.758 152.691 178.439 151.664 177.802C150.655 177.165 149.85 176.271 149.248 175.12C148.663 173.951 148.371 172.614 148.371 171.109ZM159.951 171.162C159.951 170.259 159.774 169.489 159.42 168.852C159.065 168.197 158.587 167.701 157.985 167.365C157.383 167.01 156.737 166.833 156.047 166.833C155.356 166.833 154.719 167.002 154.134 167.338C153.55 167.674 153.072 168.17 152.7 168.825C152.346 169.463 152.169 170.224 152.169 171.109C152.169 171.995 152.346 172.774 152.7 173.446C153.072 174.102 153.55 174.606 154.134 174.96C154.736 175.314 155.374 175.491 156.047 175.491C156.737 175.491 157.383 175.323 157.985 174.987C158.587 174.633 159.065 174.137 159.42 173.5C159.774 172.844 159.951 172.065 159.951 171.162ZM166.371 171.162C166.371 169.64 166.681 168.312 167.3 167.179C167.92 166.028 168.779 165.142 169.877 164.523C170.974 163.885 172.232 163.567 173.648 163.567C175.472 163.567 176.977 164.027 178.163 164.948C179.367 165.851 180.173 167.126 180.58 168.772H176.569C176.357 168.135 175.994 167.639 175.481 167.285C174.985 166.913 174.365 166.727 173.621 166.727C172.559 166.727 171.718 167.117 171.098 167.896C170.479 168.657 170.169 169.746 170.169 171.162C170.169 172.561 170.479 173.65 171.098 174.429C171.718 175.19 172.559 175.571 173.621 175.571C175.126 175.571 176.109 174.898 176.569 173.553H180.58C180.173 175.146 179.367 176.412 178.163 177.351C176.959 178.289 175.454 178.758 173.648 178.758C172.232 178.758 170.974 178.448 169.877 177.829C168.779 177.191 167.92 176.306 167.3 175.173C166.681 174.022 166.371 172.685 166.371 171.162ZM192.015 178.519L187.022 172.251V178.519H183.304V158.866H187.022V170.047L191.962 163.806H196.795L190.315 171.189L196.849 178.519H192.015ZM204.444 178.758C203.24 178.758 202.16 178.546 201.204 178.121C200.248 177.678 199.486 177.085 198.92 176.341C198.371 175.598 198.07 174.774 198.017 173.871H201.762C201.832 174.438 202.107 174.907 202.585 175.279C203.081 175.651 203.691 175.837 204.417 175.837C205.126 175.837 205.674 175.695 206.064 175.412C206.471 175.129 206.675 174.766 206.675 174.323C206.675 173.845 206.427 173.491 205.931 173.261C205.453 173.013 204.683 172.747 203.621 172.464C202.523 172.198 201.62 171.924 200.912 171.64C200.221 171.357 199.619 170.923 199.106 170.339C198.61 169.755 198.362 168.967 198.362 167.975C198.362 167.161 198.592 166.417 199.053 165.744C199.531 165.072 200.203 164.54 201.071 164.151C201.956 163.761 202.992 163.567 204.178 163.567C205.931 163.567 207.33 164.009 208.375 164.895C209.419 165.762 209.995 166.94 210.101 168.427H206.542C206.489 167.843 206.241 167.382 205.798 167.046C205.373 166.692 204.798 166.515 204.072 166.515C203.399 166.515 202.877 166.639 202.505 166.886C202.151 167.134 201.974 167.48 201.974 167.922C201.974 168.418 202.222 168.799 202.718 169.064C203.213 169.312 203.984 169.569 205.028 169.834C206.091 170.1 206.967 170.375 207.658 170.658C208.348 170.941 208.941 171.384 209.437 171.986C209.95 172.57 210.216 173.349 210.234 174.323C210.234 175.173 209.995 175.934 209.517 176.607C209.056 177.28 208.383 177.811 207.498 178.2C206.631 178.572 205.613 178.758 204.444 178.758Z" fill="#374151"/>
<g filter="url(#filter2_d_255_726)">
<g filter="url(#filter3_d_255_726)">
<path d="M423.881 60.1477C427.167 59.4845 429.676 58.9773 431.709 58.7369C433.751 58.4955 435.38 58.5142 436.903 58.9388C439.499 59.6631 441.8 61.1905 443.475 63.3026C444.457 64.5412 445.105 66.0361 445.675 68.0122C446.243 69.9797 446.748 72.4881 447.411 75.7733L488.475 279.187C489.138 282.472 489.645 284.981 489.885 287.014C490.127 289.056 490.109 290.685 489.684 292.208C488.96 294.804 487.432 297.105 485.32 298.78C484.081 299.762 482.587 300.41 480.611 300.98C478.643 301.547 476.135 302.053 472.849 302.716L306.411 336.316C303.125 336.979 300.617 337.486 298.584 337.726C296.541 337.968 294.912 337.95 293.39 337.525C290.793 336.801 288.493 335.273 286.818 333.16C285.836 331.922 285.187 330.428 284.617 328.452C284.05 326.484 283.544 323.976 282.881 320.69L241.817 117.277C241.154 113.992 240.647 111.483 240.407 109.45C240.165 107.408 240.184 105.778 240.609 104.256C241.333 101.659 242.86 99.3588 244.973 97.684C246.211 96.7018 247.706 96.0527 249.682 95.483C251.649 94.9157 254.158 94.41 257.443 93.7469L423.881 60.1477Z" fill="white" stroke="url(#paint2_linear_255_726)" stroke-width="1.50173"/>
<path d="M241.556 111.08C240.125 103.991 244.712 97.0834 251.801 95.6522L448.626 55.919C455.715 54.4878 462.623 59.0747 464.054 66.1641L511.689 302.134C513.12 309.224 508.534 316.131 501.444 317.562L304.619 357.295C297.53 358.726 290.623 354.14 289.192 347.05L241.556 111.08Z" fill="url(#paint3_linear_255_726)" fill-opacity="0.15"/>
<path d="M261.918 208.001L243.414 116.342C242.194 110.296 241.584 107.274 242.294 104.727C242.919 102.487 244.237 100.502 246.059 99.057C248.131 97.4143 251.154 96.8041 257.2 95.5836L424.815 61.7469C430.861 60.5264 433.884 59.9162 436.431 60.6266C438.671 61.2515 440.655 62.5695 442.1 64.3918C443.743 66.4634 444.353 69.4863 445.574 75.532L466.058 177.004" stroke="white" stroke-width="1.50173"/>
<rect width="107.923" height="7.61809" rx="3.80905" transform="matrix(-0.980226 0.197879 0.197879 0.980226 371.246 145.369)" fill="#E8E8E8"/>
<rect width="174.201" height="7.61809" rx="3.80905" transform="matrix(-0.980226 0.197879 0.197879 0.980226 437.912 151.656)" fill="#E8E8E8"/>
<rect width="162.519" height="7.61809" rx="3.80905" transform="matrix(-0.980226 0.197879 0.197879 0.980226 428.42 171.998)" fill="#E8E8E8"/>
<rect width="143.474" height="7.61809" rx="3.80905" transform="matrix(-0.980226 0.197879 0.197879 0.980226 414.242 193.801)" fill="#E8E8E8"/>
<rect width="107.923" height="7.61809" rx="3.80905" transform="matrix(-0.980226 0.197879 0.197879 0.980226 386.629 216.523)" fill="#E8E8E8"/>
<rect width="125.698" height="7.61809" rx="3.80905" transform="matrix(-0.980226 0.197879 0.197879 0.980226 405.354 231.011)" fill="#E8E8E8"/>
<path d="M258.134 120.159L259.388 126.374C259.565 127.247 259.907 127.853 260.415 128.19C260.933 128.526 261.572 128.617 262.333 128.463C263.084 128.311 263.629 127.981 263.966 127.473C264.313 126.963 264.398 126.272 264.222 125.398L262.967 119.184L264.25 118.925L265.501 125.125C265.666 125.942 265.641 126.666 265.426 127.296C265.209 127.917 264.846 128.42 264.338 128.806C263.839 129.191 263.241 129.453 262.546 129.593C261.851 129.734 261.194 129.724 260.575 129.566C259.966 129.405 259.441 129.081 259 128.593C258.567 128.094 258.268 127.436 258.103 126.618L256.852 120.418L258.134 120.159ZM271.131 127.89C270.539 128.009 269.988 128.018 269.479 127.915C268.967 127.803 268.539 127.596 268.195 127.294C267.848 126.983 267.614 126.595 267.491 126.131L268.815 125.864C268.931 126.241 269.173 126.52 269.541 126.7C269.919 126.878 270.372 126.914 270.898 126.807C271.386 126.709 271.75 126.523 271.988 126.25C272.226 125.977 272.312 125.676 272.245 125.347C272.177 125.009 271.977 124.791 271.644 124.692C271.309 124.583 270.811 124.513 270.149 124.48C269.546 124.445 269.046 124.39 268.649 124.313C268.26 124.226 267.903 124.058 267.58 123.811C267.263 123.552 267.055 123.174 266.954 122.676C266.875 122.281 266.919 121.896 267.088 121.52C267.256 121.143 267.538 120.818 267.932 120.543C268.324 120.258 268.797 120.06 269.352 119.948C270.206 119.775 270.941 119.852 271.554 120.178C272.167 120.504 272.569 121.039 272.758 121.783L271.476 122.042C271.366 121.643 271.136 121.352 270.786 121.169C270.445 120.983 270.026 120.941 269.528 121.041C269.068 121.134 268.722 121.307 268.489 121.559C268.256 121.812 268.172 122.097 268.237 122.417C268.288 122.67 268.411 122.866 268.604 123.003C268.806 123.128 269.039 123.218 269.304 123.272C269.577 123.315 269.946 123.353 270.412 123.386C270.997 123.424 271.478 123.483 271.856 123.563C272.232 123.634 272.572 123.79 272.875 124.032C273.187 124.272 273.395 124.626 273.5 125.094C273.585 125.517 273.544 125.921 273.378 126.307C273.211 126.692 272.932 127.027 272.539 127.312C272.155 127.585 271.685 127.778 271.131 127.89ZM281.94 121.249C281.99 121.493 282.028 121.754 282.054 122.033L275.882 123.279C276.083 124.03 276.462 124.574 277.019 124.912C277.583 125.238 278.204 125.332 278.88 125.196C279.434 125.084 279.869 124.864 280.184 124.537C280.507 124.198 280.7 123.797 280.763 123.335L282.144 123.056C282.087 123.84 281.796 124.529 281.271 125.124C280.743 125.709 280.02 126.095 279.099 126.281C278.366 126.429 277.675 126.397 277.027 126.186C276.387 125.973 275.842 125.599 275.392 125.064C274.94 124.52 274.633 123.848 274.472 123.05C274.311 122.251 274.33 121.519 274.528 120.854C274.726 120.188 275.079 119.637 275.587 119.202C276.104 118.756 276.737 118.457 277.489 118.305C278.222 118.157 278.902 118.186 279.53 118.392C280.158 118.597 280.68 118.952 281.094 119.455C281.516 119.946 281.798 120.544 281.94 121.249ZM280.562 121.249C280.463 120.76 280.271 120.364 279.984 120.06C279.696 119.747 279.346 119.539 278.934 119.436C278.53 119.322 278.102 119.311 277.652 119.402C277.003 119.532 276.491 119.851 276.114 120.357C275.746 120.862 275.604 121.487 275.686 122.233L280.562 121.249ZM283.208 121.272C283.049 120.483 283.069 119.76 283.269 119.104C283.467 118.438 283.81 117.885 284.298 117.444C284.795 117.001 285.391 116.71 286.086 116.57C286.688 116.448 287.275 116.476 287.849 116.654C288.42 116.822 288.888 117.104 289.251 117.5L288.426 113.413L289.723 113.152L291.828 123.579L290.531 123.841L290.238 122.39C290.078 122.901 289.779 123.358 289.341 123.759C288.902 124.15 288.349 124.414 287.682 124.548C286.997 124.687 286.338 124.644 285.706 124.419C285.083 124.193 284.551 123.807 284.108 123.261C283.665 122.714 283.365 122.052 283.208 121.272ZM289.749 119.966C289.632 119.384 289.412 118.9 289.09 118.515C288.768 118.13 288.382 117.866 287.932 117.722C287.49 117.567 287.03 117.538 286.551 117.635C286.072 117.731 285.657 117.932 285.308 118.237C284.959 118.542 284.711 118.935 284.563 119.414C284.416 119.894 284.401 120.425 284.518 121.007C284.638 121.599 284.86 122.092 285.184 122.486C285.506 122.871 285.888 123.141 286.33 123.296C286.77 123.442 287.229 123.466 287.708 123.37C288.188 123.273 288.602 123.072 288.951 122.767C289.307 122.451 289.559 122.053 289.707 121.573C289.853 121.084 289.867 120.548 289.749 119.966ZM297.765 115.84C297.935 115.326 298.245 114.873 298.693 114.479C299.142 114.086 299.69 113.823 300.338 113.693C301.033 113.552 301.691 113.591 302.312 113.807C302.933 114.024 303.463 114.401 303.904 114.938C304.343 115.465 304.642 116.124 304.801 116.913C304.959 117.692 304.939 118.42 304.743 119.095C304.547 119.77 304.201 120.334 303.706 120.786C303.22 121.236 302.634 121.53 301.948 121.668C301.281 121.803 300.665 121.776 300.099 121.587C299.542 121.396 299.091 121.101 298.747 120.701L299.034 122.125L297.752 122.384L295.647 111.956L296.929 111.697L297.765 115.84ZM303.491 117.177C303.373 116.595 303.153 116.111 302.831 115.726C302.509 115.342 302.123 115.077 301.674 114.934C301.234 114.788 300.774 114.763 300.295 114.86C299.825 114.955 299.412 115.16 299.056 115.477C298.707 115.782 298.455 116.18 298.3 116.671C298.152 117.15 298.136 117.676 298.252 118.25C298.369 118.832 298.59 119.32 298.914 119.714C299.246 120.097 299.632 120.366 300.074 120.521C300.524 120.665 300.983 120.69 301.453 120.595C301.932 120.498 302.346 120.297 302.695 119.992C303.052 119.676 303.304 119.278 303.451 118.798C303.597 118.309 303.61 117.769 303.491 117.177ZM312.367 111.396L310.009 123.693L308.685 123.96L309.456 119.933L304.8 112.924L306.223 112.637L309.91 118.404L311.042 111.664L312.367 111.396ZM324.556 106.751L326.539 116.572L325.256 116.831L324.357 112.378L319.355 113.388L320.254 117.841L318.971 118.1L316.989 108.278L318.271 108.019L319.141 112.331L324.144 111.321L323.273 107.009L324.556 106.751ZM333.9 115.086L330.75 111.542L329.2 111.855L330.01 115.871L328.728 116.13L326.745 106.309L329.916 105.669C330.658 105.519 331.308 105.519 331.867 105.671C332.435 105.82 332.889 106.085 333.23 106.466C333.571 106.847 333.797 107.315 333.909 107.869C334.046 108.545 333.969 109.182 333.679 109.778C333.398 110.372 332.885 110.833 332.139 111.159L335.436 114.776L333.9 115.086ZM328.992 110.827L330.88 110.446C331.575 110.305 332.063 110.031 332.342 109.622C332.619 109.205 332.7 108.709 332.585 108.136C332.467 107.554 332.202 107.138 331.79 106.889C331.388 106.638 330.834 106.583 330.129 106.725L328.241 107.107L328.992 110.827ZM341.277 106.66L342.196 111.212C342.271 111.588 342.405 111.839 342.597 111.967C342.787 112.085 343.08 112.104 343.474 112.024L344.418 111.834L344.637 112.919L343.482 113.152C342.768 113.296 342.199 113.24 341.776 112.983C341.353 112.726 341.065 112.222 340.913 111.471L339.994 106.919L338.994 107.121L338.781 106.064L339.781 105.862L339.389 103.918L340.671 103.659L341.063 105.603L343.079 105.197L343.292 106.253L341.277 106.66ZM349.585 112.052C348.861 112.198 348.17 112.166 347.512 111.957C346.863 111.746 346.309 111.374 345.85 110.841C345.398 110.297 345.091 109.625 344.93 108.827C344.77 108.037 344.799 107.308 345.016 106.639C345.24 105.958 345.616 105.398 346.143 104.959C346.669 104.511 347.298 104.213 348.031 104.065C348.764 103.917 349.459 103.948 350.117 104.157C350.774 104.357 351.332 104.723 351.791 105.256C352.26 105.787 352.575 106.452 352.736 107.251C352.898 108.049 352.861 108.79 352.628 109.472C352.401 110.144 352.021 110.705 351.486 111.155C350.951 111.605 350.317 111.904 349.585 112.052ZM349.357 110.925C349.817 110.832 350.228 110.636 350.588 110.339C350.948 110.041 351.207 109.652 351.364 109.17C351.53 108.687 351.551 108.135 351.426 107.515C351.301 106.895 351.072 106.394 350.741 106.011C350.409 105.628 350.026 105.373 349.589 105.246C349.151 105.11 348.702 105.088 348.241 105.181C347.772 105.276 347.361 105.471 347.01 105.767C346.667 106.051 346.421 106.433 346.274 106.913C346.126 107.392 346.115 107.942 346.24 108.562C346.367 109.191 346.587 109.699 346.9 110.086C347.222 110.471 347.597 110.732 348.026 110.871C348.453 111 348.897 111.018 349.357 110.925ZM357.7 106.249C357.539 105.45 357.558 104.723 357.758 104.066C357.956 103.401 358.304 102.847 358.801 102.404C359.308 101.959 359.928 101.663 360.66 101.515C361.609 101.324 362.435 101.397 363.139 101.734C363.852 102.069 364.389 102.625 364.752 103.403L363.371 103.681C363.144 103.238 362.811 102.919 362.371 102.725C361.94 102.528 361.443 102.487 360.879 102.6C360.147 102.748 359.606 103.121 359.257 103.72C358.907 104.309 358.825 105.063 359.011 105.984C359.198 106.914 359.569 107.587 360.122 108.004C360.676 108.42 361.319 108.554 362.051 108.406C362.615 108.292 363.058 108.066 363.381 107.727C363.704 107.388 363.886 106.96 363.928 106.443L365.309 106.164C365.262 106.995 364.977 107.713 364.453 108.317C363.928 108.912 363.2 109.303 362.27 109.491C361.538 109.639 360.852 109.606 360.212 109.393C359.582 109.178 359.047 108.802 358.606 108.266C358.165 107.729 357.863 107.057 357.7 106.249ZM370.914 107.746C370.191 107.892 369.5 107.86 368.842 107.651C368.193 107.44 367.639 107.068 367.179 106.535C366.727 105.991 366.421 105.319 366.26 104.521C366.1 103.732 366.129 103.002 366.346 102.333C366.57 101.652 366.946 101.092 367.473 100.653C367.999 100.205 368.628 99.9069 369.361 99.7589C370.093 99.611 370.789 99.6417 371.447 99.8511C372.103 100.051 372.661 100.417 373.121 100.95C373.59 101.481 373.905 102.146 374.066 102.945C374.227 103.743 374.191 104.484 373.957 105.167C373.731 105.838 373.351 106.399 372.816 106.849C372.281 107.299 371.647 107.598 370.914 107.746ZM370.687 106.619C371.147 106.526 371.557 106.331 371.918 106.033C372.278 105.735 372.537 105.346 372.694 104.864C372.86 104.381 372.881 103.829 372.756 103.209C372.631 102.589 372.402 102.088 372.071 101.705C371.739 101.322 371.355 101.067 370.919 100.94C370.481 100.804 370.032 100.782 369.571 100.875C369.102 100.97 368.691 101.165 368.34 101.461C367.997 101.745 367.751 102.127 367.604 102.607C367.456 103.086 367.445 103.636 367.57 104.256C367.697 104.886 367.917 105.394 368.23 105.78C368.552 106.165 368.927 106.426 369.356 106.565C369.783 106.694 370.227 106.712 370.687 106.619ZM375.712 95.793L377.817 106.221L376.535 106.48L374.429 96.0519L375.712 95.793ZM379.18 95.093L381.285 105.521L380.002 105.78L377.897 95.3518L379.18 95.093ZM389.677 99.5001C389.726 99.7444 389.764 100.006 389.791 100.284L383.619 101.53C383.819 102.281 384.198 102.826 384.755 103.163C385.32 103.489 385.94 103.584 386.616 103.447C387.171 103.335 387.605 103.115 387.921 102.788C388.243 102.449 388.436 102.048 388.499 101.586L389.88 101.307C389.823 102.091 389.532 102.78 389.007 103.375C388.48 103.961 387.756 104.346 386.835 104.532C386.103 104.68 385.412 104.648 384.763 104.437C384.124 104.224 383.579 103.85 383.129 103.315C382.677 102.771 382.37 102.1 382.209 101.301C382.048 100.503 382.066 99.7704 382.264 99.1047C382.462 98.439 382.815 97.8886 383.324 97.4535C383.84 97.0071 384.474 96.708 385.225 96.5563C385.958 96.4084 386.639 96.4373 387.267 96.6429C387.895 96.8485 388.416 97.2028 388.831 97.7058C389.252 98.1974 389.535 98.7956 389.677 99.5001ZM388.298 99.4998C388.199 99.0113 388.007 98.6151 387.721 98.3111C387.433 97.9977 387.083 97.7897 386.671 97.6871C386.267 97.5732 385.839 97.5617 385.388 97.6527C384.74 97.7836 384.227 98.1022 383.85 98.6084C383.483 99.1128 383.34 99.738 383.422 100.484L388.298 99.4998ZM390.947 99.537C390.786 98.7385 390.805 98.0111 391.005 97.3547C391.203 96.689 391.551 96.1349 392.048 95.6923C392.555 95.2478 393.175 94.9516 393.907 94.8037C394.856 94.6121 395.682 94.6849 396.386 95.0219C397.099 95.3571 397.637 95.9134 397.999 96.6909L396.618 96.9697C396.391 96.5265 396.058 96.2076 395.618 96.0129C395.187 95.8163 394.69 95.7749 394.126 95.8887C393.394 96.0366 392.853 96.4098 392.505 97.0081C392.154 97.597 392.072 98.3518 392.258 99.2724C392.445 100.202 392.816 100.876 393.369 101.292C393.923 101.708 394.566 101.842 395.298 101.694C395.862 101.581 396.305 101.354 396.628 101.015C396.951 100.676 397.133 100.249 397.175 99.7316L398.556 99.4528C398.509 100.284 398.224 101.001 397.7 101.606C397.175 102.2 396.448 102.592 395.517 102.779C394.785 102.927 394.099 102.895 393.459 102.682C392.829 102.467 392.294 102.091 391.853 101.554C391.412 101.017 391.11 100.345 390.947 99.537ZM400.987 94.6065L401.905 99.158C401.981 99.5338 402.115 99.7854 402.307 99.9129C402.497 100.031 402.79 100.05 403.184 99.9705L404.128 99.7799L404.347 100.865L403.192 101.098C402.478 101.242 401.909 101.186 401.486 100.929C401.062 100.673 400.775 100.168 400.623 99.4169L399.704 94.8654L398.704 95.0673L398.49 94.0105L399.491 93.8085L399.098 91.8639L400.381 91.605L400.773 93.5496L402.788 93.1429L403.002 94.1997L400.987 94.6065ZM265.013 144.5L263.392 144.827L264.738 151.492L263.455 151.751L262.11 145.086L261.109 145.287L260.896 144.231L261.896 144.029L261.786 143.479C261.611 142.615 261.705 141.941 262.067 141.457C262.436 140.962 263.114 140.615 264.1 140.416L264.317 141.487C263.753 141.601 263.376 141.794 263.187 142.067C263.005 142.329 262.965 142.713 263.068 143.22L263.179 143.77L264.799 143.443L265.013 144.5ZM274.06 145.284C274.109 145.528 274.147 145.789 274.174 146.067L268.002 147.313C268.203 148.065 268.581 148.609 269.138 148.946C269.703 149.272 270.323 149.367 271 149.231C271.554 149.119 271.989 148.899 272.304 148.571C272.626 148.232 272.819 147.832 272.882 147.369L274.263 147.09C274.206 147.874 273.915 148.564 273.39 149.159C272.863 149.744 272.139 150.13 271.219 150.316C270.486 150.464 269.795 150.432 269.146 150.221C268.507 150.008 267.962 149.634 267.512 149.099C267.06 148.554 266.753 147.883 266.592 147.085C266.431 146.286 266.449 145.554 266.647 144.888C266.845 144.222 267.199 143.672 267.707 143.237C268.223 142.791 268.857 142.492 269.609 142.34C270.341 142.192 271.022 142.221 271.65 142.426C272.278 142.632 272.799 142.986 273.214 143.489C273.636 143.981 273.918 144.579 274.06 145.284ZM272.681 145.283C272.583 144.795 272.39 144.399 272.104 144.095C271.816 143.781 271.466 143.573 271.054 143.471C270.65 143.357 270.222 143.345 269.771 143.436C269.123 143.567 268.61 143.886 268.234 144.392C267.866 144.896 267.723 145.522 267.806 146.268L272.681 145.283ZM282.798 143.52C282.848 143.764 282.886 144.025 282.912 144.303L276.74 145.549C276.941 146.301 277.32 146.845 277.877 147.182C278.441 147.508 279.062 147.603 279.738 147.467C280.292 147.355 280.727 147.135 281.042 146.807C281.365 146.468 281.558 146.068 281.621 145.605L283.002 145.326C282.945 146.11 282.654 146.8 282.129 147.395C281.601 147.98 280.878 148.366 279.957 148.552C279.224 148.7 278.533 148.668 277.885 148.457C277.245 148.244 276.7 147.87 276.25 147.335C275.798 146.79 275.491 146.119 275.33 145.321C275.169 144.522 275.188 143.79 275.386 143.124C275.584 142.458 275.937 141.908 276.445 141.473C276.962 141.027 277.595 140.728 278.347 140.576C279.08 140.428 279.76 140.457 280.388 140.662C281.016 140.868 281.538 141.222 281.952 141.725C282.374 142.217 282.656 142.815 282.798 143.52ZM281.42 143.519C281.321 143.031 281.129 142.635 280.842 142.331C280.554 142.017 280.204 141.809 279.792 141.707C279.388 141.593 278.96 141.581 278.51 141.672C277.861 141.803 277.349 142.122 276.972 142.628C276.604 143.132 276.462 143.758 276.544 144.504L281.42 143.519ZM284.066 143.542C283.907 142.753 283.927 142.031 284.127 141.374C284.325 140.709 284.668 140.155 285.156 139.715C285.653 139.272 286.249 138.981 286.944 138.84C287.546 138.719 288.133 138.747 288.707 138.924C289.278 139.093 289.746 139.375 290.109 139.771L289.284 135.684L290.581 135.422L292.686 145.85L291.389 146.112L291.096 144.66C290.936 145.172 290.637 145.628 290.199 146.029C289.76 146.421 289.207 146.684 288.54 146.819C287.855 146.957 287.196 146.914 286.564 146.69C285.941 146.464 285.409 146.077 284.966 145.531C284.523 144.985 284.223 144.322 284.066 143.542ZM290.607 142.237C290.49 141.654 290.27 141.171 289.948 140.786C289.626 140.401 289.24 140.137 288.79 139.993C288.348 139.838 287.888 139.808 287.409 139.905C286.93 140.002 286.515 140.203 286.166 140.508C285.817 140.813 285.569 141.205 285.421 141.685C285.274 142.164 285.259 142.695 285.376 143.278C285.496 143.87 285.718 144.363 286.042 144.757C286.364 145.142 286.746 145.411 287.188 145.567C287.628 145.713 288.087 145.737 288.566 145.64C289.046 145.544 289.46 145.343 289.809 145.038C290.165 144.721 290.417 144.323 290.565 143.844C290.711 143.355 290.725 142.819 290.607 142.237ZM294.866 138.869C295.037 138.355 295.346 137.902 295.794 137.508C296.243 137.115 296.791 136.852 297.439 136.722C298.135 136.581 298.792 136.62 299.413 136.836C300.034 137.053 300.564 137.43 301.005 137.967C301.444 138.494 301.743 139.153 301.903 139.942C302.06 140.721 302.041 141.449 301.844 142.124C301.648 142.799 301.303 143.363 300.807 143.815C300.321 144.265 299.735 144.559 299.049 144.697C298.382 144.832 297.766 144.805 297.2 144.616C296.643 144.425 296.192 144.13 295.848 143.73L296.135 145.154L294.853 145.413L292.748 134.985L294.03 134.726L294.866 138.869ZM300.592 140.206C300.474 139.624 300.255 139.14 299.933 138.755C299.61 138.371 299.225 138.106 298.775 137.962C298.335 137.817 297.876 137.792 297.396 137.889C296.927 137.984 296.514 138.189 296.157 138.506C295.808 138.811 295.556 139.209 295.401 139.7C295.253 140.179 295.237 140.705 295.353 141.279C295.47 141.861 295.691 142.349 296.015 142.743C296.347 143.126 296.733 143.395 297.175 143.55C297.625 143.694 298.084 143.719 298.554 143.624C299.033 143.527 299.447 143.326 299.796 143.021C300.153 142.705 300.405 142.307 300.553 141.827C300.698 141.338 300.712 140.798 300.592 140.206ZM303.111 139.698C302.952 138.909 302.972 138.186 303.172 137.529C303.37 136.864 303.713 136.311 304.201 135.87C304.698 135.427 305.29 135.137 305.976 134.998C306.652 134.862 307.269 134.889 307.825 135.08C308.382 135.27 308.827 135.562 309.16 135.954L308.876 134.545L310.172 134.283L311.731 142.005L310.435 142.267L310.145 140.83C309.982 141.332 309.678 141.784 309.231 142.187C308.792 142.579 308.239 142.842 307.572 142.977C306.886 143.115 306.232 143.071 305.609 142.845C304.987 142.619 304.454 142.233 304.011 141.686C303.569 141.14 303.269 140.477 303.111 139.698ZM309.653 138.392C309.535 137.809 309.315 137.326 308.993 136.941C308.671 136.556 308.285 136.292 307.836 136.148C307.394 135.993 306.933 135.964 306.454 136.06C305.975 136.157 305.561 136.358 305.212 136.663C304.863 136.968 304.615 137.361 304.467 137.84C304.319 138.32 304.304 138.851 304.422 139.433C304.541 140.025 304.763 140.518 305.087 140.912C305.409 141.297 305.791 141.567 306.233 141.722C306.673 141.868 307.133 141.892 307.612 141.796C308.091 141.699 308.505 141.498 308.854 141.193C309.211 140.876 309.463 140.478 309.61 139.999C309.756 139.51 309.77 138.974 309.653 138.392ZM312.637 137.789C312.476 136.991 312.495 136.263 312.695 135.607C312.893 134.941 313.241 134.387 313.738 133.945C314.245 133.5 314.864 133.204 315.597 133.056C316.546 132.865 317.372 132.937 318.076 133.274C318.789 133.609 319.326 134.166 319.689 134.943L318.308 135.222C318.081 134.779 317.748 134.46 317.308 134.265C316.877 134.069 316.38 134.027 315.816 134.141C315.083 134.289 314.543 134.662 314.194 135.26C313.844 135.849 313.762 136.604 313.947 137.525C314.135 138.455 314.506 139.128 315.059 139.544C315.612 139.961 316.255 140.095 316.988 139.947C317.552 139.833 317.995 139.607 318.318 139.268C318.64 138.929 318.823 138.501 318.865 137.984L320.246 137.705C320.199 138.536 319.913 139.254 319.39 139.858C318.865 140.453 318.137 140.844 317.207 141.032C316.474 141.18 315.788 141.147 315.149 140.934C314.519 140.719 313.984 140.343 313.543 139.806C313.102 139.27 312.8 138.597 312.637 137.789ZM326.77 138.969L323.052 136.171L323.74 139.581L322.458 139.84L320.353 129.412L321.635 129.153L322.872 135.283L325.155 131.259L326.944 130.897L324.085 135.478L328.517 138.617L326.77 138.969ZM332.203 133.825C332.043 133.036 332.064 132.313 332.263 131.657C332.462 130.991 332.804 130.438 333.292 129.997C333.79 129.555 334.381 129.264 335.067 129.126C335.743 128.989 336.36 129.016 336.917 129.207C337.473 129.398 337.918 129.689 338.252 130.081L337.967 128.672L339.264 128.41L340.823 136.133L339.526 136.394L339.236 134.957C339.073 135.459 338.769 135.912 338.322 136.315C337.883 136.706 337.33 136.97 336.663 137.104C335.977 137.243 335.323 137.199 334.7 136.972C334.078 136.746 333.545 136.36 333.103 135.814C332.66 135.268 332.36 134.605 332.203 133.825ZM338.744 132.519C338.626 131.937 338.406 131.453 338.084 131.068C337.762 130.684 337.376 130.419 336.927 130.275C336.485 130.12 336.024 130.091 335.545 130.188C335.066 130.284 334.652 130.485 334.303 130.79C333.954 131.096 333.706 131.488 333.558 131.967C333.41 132.447 333.395 132.978 333.513 133.56C333.633 134.152 333.854 134.645 334.178 135.039C334.5 135.424 334.882 135.694 335.324 135.849C335.764 135.995 336.224 136.02 336.703 135.923C337.182 135.826 337.596 135.625 337.945 135.32C338.302 135.004 338.554 134.606 338.702 134.126C338.847 133.637 338.861 133.102 338.744 132.519ZM344.786 128.396L343.166 128.723L344.511 135.388L343.229 135.647L341.884 128.982L340.883 129.183L340.67 128.127L341.67 127.925L341.559 127.375C341.385 126.511 341.478 125.837 341.84 125.353C342.21 124.858 342.888 124.511 343.874 124.312L344.09 125.383C343.527 125.497 343.15 125.69 342.961 125.963C342.779 126.224 342.739 126.609 342.842 127.116L342.953 127.666L344.573 127.339L344.786 128.396ZM347.846 127.778L348.764 132.329C348.84 132.705 348.974 132.957 349.166 133.084C349.356 133.202 349.649 133.222 350.043 133.142L350.987 132.951L351.206 134.036L350.051 134.27C349.337 134.414 348.768 134.358 348.345 134.101C347.921 133.844 347.634 133.34 347.482 132.588L346.563 128.037L345.563 128.239L345.35 127.182L346.35 126.98L345.957 125.035L347.24 124.776L347.632 126.721L349.647 126.314L349.861 127.371L347.846 127.778ZM358.967 128.143C359.016 128.388 359.054 128.649 359.081 128.927L352.909 130.173C353.109 130.924 353.488 131.469 354.045 131.806C354.609 132.132 355.23 132.227 355.906 132.09C356.46 131.978 356.895 131.759 357.21 131.431C357.533 131.092 357.726 130.692 357.789 130.229L359.17 129.95C359.113 130.734 358.822 131.424 358.297 132.018C357.77 132.604 357.046 132.99 356.125 133.175C355.393 133.323 354.702 133.292 354.053 133.08C353.413 132.867 352.869 132.493 352.418 131.958C351.966 131.414 351.66 130.743 351.499 129.944C351.337 129.146 351.356 128.414 351.554 127.748C351.752 127.082 352.105 126.532 352.614 126.097C353.13 125.65 353.764 125.351 354.515 125.2C355.248 125.052 355.928 125.081 356.557 125.286C357.185 125.492 357.706 125.846 358.12 126.349C358.542 126.841 358.824 127.439 358.967 128.143ZM357.588 128.143C357.489 127.655 357.297 127.258 357.011 126.954C356.722 126.641 356.373 126.433 355.961 126.33C355.556 126.216 355.129 126.205 354.678 126.296C354.03 126.427 353.517 126.745 353.14 127.252C352.773 127.756 352.63 128.381 352.712 129.127L357.588 128.143ZM361.475 125.232C361.611 124.745 361.861 124.337 362.226 124.01C362.599 123.68 363.086 123.455 363.688 123.333L363.955 124.658L363.617 124.726C362.179 125.016 361.618 125.941 361.933 127.501L362.781 131.7L361.498 131.959L359.939 124.237L361.222 123.978L361.475 125.232ZM376.719 124.56C376.768 124.804 376.806 125.065 376.833 125.343L370.661 126.589C370.861 127.341 371.24 127.885 371.797 128.223C372.361 128.549 372.982 128.643 373.658 128.507C374.212 128.395 374.647 128.175 374.962 127.848C375.285 127.509 375.478 127.108 375.541 126.645L376.922 126.367C376.865 127.151 376.574 127.84 376.049 128.435C375.522 129.02 374.798 129.406 373.877 129.592C373.144 129.74 372.454 129.708 371.805 129.497C371.165 129.284 370.621 128.91 370.17 128.375C369.718 127.831 369.412 127.159 369.251 126.361C369.089 125.562 369.108 124.83 369.306 124.164C369.504 123.499 369.857 122.948 370.366 122.513C370.882 122.067 371.516 121.768 372.267 121.616C373 121.468 373.68 121.497 374.308 121.703C374.937 121.908 375.458 122.262 375.872 122.765C376.294 123.257 376.576 123.855 376.719 124.56ZM375.34 124.559C375.241 124.071 375.049 123.675 374.763 123.371C374.474 123.057 374.124 122.849 373.713 122.747C373.308 122.633 372.881 122.621 372.43 122.712C371.782 122.843 371.269 123.162 370.892 123.668C370.525 124.173 370.382 124.798 370.464 125.544L375.34 124.559ZM381.886 126.611L382.962 119.589L384.329 119.313L382.858 127.647L381.364 127.948L376.775 120.838L378.156 120.559L381.886 126.611ZM393.356 121.201C393.405 121.445 393.443 121.707 393.47 121.985L387.298 123.231C387.499 123.982 387.877 124.527 388.434 124.864C388.999 125.19 389.619 125.285 390.295 125.148C390.85 125.036 391.284 124.817 391.6 124.489C391.922 124.15 392.115 123.749 392.178 123.287L393.559 123.008C393.502 123.792 393.211 124.481 392.686 125.076C392.159 125.662 391.435 126.047 390.515 126.233C389.782 126.381 389.091 126.349 388.442 126.138C387.803 125.925 387.258 125.551 386.808 125.016C386.356 124.472 386.049 123.801 385.888 123.002C385.727 122.204 385.745 121.471 385.943 120.806C386.141 120.14 386.494 119.59 387.003 119.155C387.519 118.708 388.153 118.409 388.904 118.257C389.637 118.11 390.318 118.138 390.946 118.344C391.574 118.55 392.095 118.904 392.51 119.407C392.932 119.899 393.214 120.497 393.356 121.201ZM391.977 121.201C391.879 120.712 391.686 120.316 391.4 120.012C391.112 119.699 390.762 119.491 390.35 119.388C389.946 119.274 389.518 119.263 389.067 119.354C388.419 119.485 387.906 119.803 387.529 120.31C387.162 120.814 387.019 121.439 387.102 122.185L391.977 121.201ZM398.063 116.394C399.002 116.204 399.821 116.337 400.519 116.793C401.215 117.239 401.671 117.997 401.888 119.068L402.807 123.62L401.538 123.876L400.656 119.507C400.501 118.737 400.19 118.189 399.723 117.863C399.254 117.527 398.687 117.427 398.02 117.561C397.343 117.698 396.846 118.018 396.527 118.522C396.218 119.025 396.145 119.68 396.308 120.488L397.17 124.758L395.888 125.017L394.329 117.294L395.611 117.036L395.833 118.135C396.007 117.689 396.288 117.314 396.677 117.011C397.075 116.706 397.537 116.5 398.063 116.394ZM405.12 116.216L406.039 120.767C406.115 121.143 406.248 121.395 406.44 121.522C406.63 121.64 406.923 121.66 407.317 121.58L408.261 121.389L408.48 122.474L407.325 122.708C406.611 122.852 406.042 122.796 405.619 122.539C405.196 122.282 404.908 121.778 404.756 121.026L403.837 116.475L402.837 116.677L402.624 115.62L403.624 115.418L403.232 113.473L404.514 113.214L404.906 115.159L406.922 114.752L407.135 115.809L405.12 116.216ZM412.793 121.736C412.202 121.855 411.651 121.864 411.141 121.761C410.63 121.649 410.202 121.442 409.857 121.14C409.511 120.829 409.276 120.441 409.153 119.977L410.478 119.71C410.593 120.088 410.835 120.366 411.204 120.546C411.582 120.724 412.034 120.76 412.56 120.654C413.049 120.555 413.412 120.369 413.65 120.096C413.889 119.823 413.975 119.522 413.908 119.194C413.84 118.855 413.639 118.637 413.306 118.538C412.972 118.429 412.474 118.359 411.812 118.326C411.208 118.291 410.708 118.236 410.312 118.16C409.922 118.072 409.566 117.904 409.242 117.657C408.926 117.398 408.718 117.02 408.617 116.522C408.537 116.127 408.582 115.742 408.75 115.366C408.919 114.989 409.2 114.664 409.594 114.389C409.987 114.104 410.46 113.906 411.014 113.794C411.869 113.622 412.603 113.698 413.217 114.024C413.83 114.35 414.231 114.885 414.421 115.629L413.138 115.888C413.028 115.49 412.799 115.199 412.449 115.015C412.108 114.83 411.689 114.787 411.191 114.888C410.731 114.981 410.384 115.153 410.152 115.405C409.919 115.658 409.835 115.944 409.899 116.263C409.951 116.517 410.073 116.712 410.267 116.849C410.468 116.974 410.702 117.064 410.967 117.118C411.239 117.161 411.609 117.199 412.075 117.232C412.66 117.27 413.141 117.329 413.519 117.41C413.895 117.48 414.234 117.637 414.537 117.879C414.85 118.119 415.058 118.473 415.162 118.94C415.248 119.363 415.207 119.767 415.04 120.153C414.874 120.538 414.594 120.874 414.202 121.158C413.817 121.431 413.348 121.624 412.793 121.736ZM421.579 119.918C421.335 119.968 421.111 119.925 420.908 119.79C420.704 119.655 420.578 119.465 420.529 119.221C420.48 118.977 420.522 118.753 420.657 118.55C420.792 118.346 420.982 118.22 421.226 118.171C421.461 118.123 421.675 118.168 421.869 118.305C422.072 118.44 422.199 118.63 422.248 118.874C422.297 119.118 422.255 119.342 422.12 119.545C421.994 119.746 421.814 119.871 421.579 119.918ZM424.538 119.321C424.293 119.37 424.07 119.327 423.866 119.192C423.663 119.057 423.537 118.868 423.488 118.624C423.438 118.379 423.481 118.156 423.616 117.952C423.751 117.749 423.941 117.623 424.185 117.574C424.42 117.526 424.634 117.571 424.828 117.708C425.031 117.843 425.157 118.032 425.207 118.277C425.256 118.521 425.213 118.745 425.078 118.948C424.953 119.149 424.772 119.274 424.538 119.321ZM427.496 118.724C427.252 118.773 427.028 118.73 426.825 118.595C426.622 118.46 426.495 118.271 426.446 118.026C426.397 117.782 426.44 117.558 426.575 117.355C426.71 117.152 426.899 117.026 427.143 116.976C427.378 116.929 427.593 116.974 427.787 117.11C427.99 117.245 428.116 117.435 428.165 117.679C428.215 117.924 428.172 118.147 428.037 118.351C427.911 118.552 427.731 118.676 427.496 118.724ZM430.455 118.126C430.211 118.176 429.987 118.133 429.784 117.998C429.58 117.863 429.454 117.673 429.405 117.429C429.356 117.185 429.398 116.961 429.533 116.758C429.668 116.555 429.858 116.428 430.102 116.379C430.337 116.332 430.551 116.376 430.745 116.513C430.948 116.648 431.075 116.838 431.124 117.082C431.173 117.326 431.13 117.55 430.996 117.753C430.87 117.955 430.69 118.079 430.455 118.126Z" fill="#9CA3AF"/>
</g>
</g>
<rect x="480.476" y="39.4029" width="23.1276" height="27.4946" rx="5.44991" fill="white"/>
<rect x="480.476" y="39.4029" width="23.1276" height="27.4946" rx="5.44991" stroke="#E5E7EB" stroke-width="1.32793"/>
<path d="M492.04 53.9145C492.462 53.9145 492.804 53.5723 492.804 53.1503C492.804 52.7282 492.462 52.386 492.04 52.386C491.618 52.386 491.275 52.7282 491.275 53.1503C491.275 53.5723 491.618 53.9145 492.04 53.9145Z" stroke="#9CA3AF" stroke-width="1.52847" stroke-linecap="round" stroke-linejoin="round"/>
<path d="M492.04 48.5648C492.462 48.5648 492.804 48.2227 492.804 47.8006C492.804 47.3785 492.462 47.0364 492.04 47.0364C491.618 47.0364 491.275 47.3785 491.275 47.8006C491.275 48.2227 491.618 48.5648 492.04 48.5648Z" stroke="#9CA3AF" stroke-width="1.52847" stroke-linecap="round" stroke-linejoin="round"/>
<path d="M492.04 59.2641C492.462 59.2641 492.804 58.922 492.804 58.4999C492.804 58.0778 492.462 57.7357 492.04 57.7357C491.618 57.7357 491.275 58.0778 491.275 58.4999C491.275 58.922 491.618 59.2641 492.04 59.2641Z" stroke="#9CA3AF" stroke-width="1.52847" stroke-linecap="round" stroke-linejoin="round"/>
</g>
</g>
<defs>
<filter id="filter0_d_255_726" x="-0.000263214" y="-1.90735e-05" width="544.45" height="299.322" filterUnits="userSpaceOnUse" color-interpolation-filters="sRGB">
<feFlood flood-opacity="0" result="BackgroundImageFix"/>
<feColorMatrix in="SourceAlpha" type="matrix" values="0 0 0 0 0 0 0 0 0 0 0 0 0 0 0 0 0 0 127 0" result="hardAlpha"/>
<feOffset/>
<feGaussianBlur stdDeviation="9.76185"/>
<feComposite in2="hardAlpha" operator="out"/>
<feColorMatrix type="matrix" values="0 0 0 0 0 0 0 0 0 0 0 0 0 0 0 0 0 0 0.05 0"/>
<feBlend mode="normal" in2="BackgroundImageFix" result="effect1_dropShadow_255_726"/>
<feBlend mode="normal" in="SourceGraphic" in2="effect1_dropShadow_255_726" result="shape"/>
</filter>
<filter id="filter1_d_255_726" x="234.856" y="45.7312" width="263.385" height="298.945" filterUnits="userSpaceOnUse" color-interpolation-filters="sRGB">
<feFlood flood-opacity="0" result="BackgroundImageFix"/>
<feColorMatrix in="SourceAlpha" type="matrix" values="0 0 0 0 0 0 0 0 0 0 0 0 0 0 0 0 0 0 127 0" result="hardAlpha"/>
<feOffset dx="-6.1178"/>
<feGaussianBlur stdDeviation="5.35308"/>
<feComposite in2="hardAlpha" operator="out"/>
<feColorMatrix type="matrix" values="0 0 0 0 0 0 0 0 0 0 0 0 0 0 0 0 0 0 0.19 0"/>
<feBlend mode="normal" in2="BackgroundImageFix" result="effect1_dropShadow_255_726"/>
<feBlend mode="normal" in="SourceGraphic" in2="effect1_dropShadow_255_726" result="shape"/>
</filter>
<filter id="filter2_d_255_726" x="219.678" y="43.5206" width="297.475" height="326.173" filterUnits="userSpaceOnUse" color-interpolation-filters="sRGB">
<feFlood flood-opacity="0" result="BackgroundImageFix"/>
<feColorMatrix in="SourceAlpha" type="matrix" values="0 0 0 0 0 0 0 0 0 0 0 0 0 0 0 0 0 0 127 0" result="hardAlpha"/>
<feOffset dx="-6.93533"/>
<feGaussianBlur stdDeviation="6.06841"/>
<feComposite in2="hardAlpha" operator="out"/>
<feColorMatrix type="matrix" values="0 0 0 0 0 0 0 0 0 0 0 0 0 0 0 0 0 0 0.19 0"/>
<feBlend mode="normal" in2="BackgroundImageFix" result="effect1_dropShadow_255_726"/>
<feBlend mode="normal" in="SourceGraphic" in2="effect1_dropShadow_255_726" result="shape"/>
</filter>
<filter id="filter3_d_255_726" x="222.664" y="45.4209" width="293.674" height="322.372" filterUnits="userSpaceOnUse" color-interpolation-filters="sRGB">
<feFlood flood-opacity="0" result="BackgroundImageFix"/>
<feColorMatrix in="SourceAlpha" type="matrix" values="0 0 0 0 0 0 0 0 0 0 0 0 0 0 0 0 0 0 127 0" result="hardAlpha"/>
<feOffset dx="-5.84945"/>
<feGaussianBlur stdDeviation="5.11827"/>
<feComposite in2="hardAlpha" operator="out"/>
<feColorMatrix type="matrix" values="0 0 0 0 0 0 0 0 0 0 0 0 0 0 0 0 0 0 0.19 0"/>
<feBlend mode="normal" in2="BackgroundImageFix" result="effect1_dropShadow_255_726"/>
<feBlend mode="normal" in="SourceGraphic" in2="effect1_dropShadow_255_726" result="shape"/>
</filter>
<linearGradient id="paint0_linear_255_726" x1="384.989" y1="67.1388" x2="360.342" y2="323.2" gradientUnits="userSpaceOnUse">
<stop stop-color="#475569" stop-opacity="0.06"/>
<stop offset="1" stop-color="#475569" stop-opacity="0"/>
</linearGradient>
<linearGradient id="paint1_linear_255_726" x1="385.218" y1="67.161" x2="360.679" y2="322.094" gradientUnits="userSpaceOnUse">
<stop offset="0.4486" stop-color="#334155" stop-opacity="0"/>
<stop offset="0.957946" stop-color="#334155"/>
</linearGradient>
<linearGradient id="paint2_linear_255_726" x1="340.811" y1="77.6834" x2="389.482" y2="318.78" gradientUnits="userSpaceOnUse">
<stop stop-color="#475569" stop-opacity="0.06"/>
<stop offset="1" stop-color="#475569" stop-opacity="0"/>
</linearGradient>
<linearGradient id="paint3_linear_255_726" x1="350.214" y1="75.7856" x2="403.032" y2="337.429" gradientUnits="userSpaceOnUse">
<stop offset="0.4486" stop-color="#334155" stop-opacity="0"/>
<stop offset="0.957946" stop-color="#334155"/>
</linearGradient>
<clipPath id="clip0_255_726">
<rect x="19.5234" y="19.5237" width="505.402" height="260.274" rx="15.3127" fill="white"/>
</clipPath>
</defs>
</svg>
